<?xml version="1.0" encoding="UTF-8" standalone="no"?>
<!-- Created with Inkscape (http://www.inkscape.org/) -->

<svg
   xmlns:svg="http://www.w3.org/2000/svg"
   xmlns="http://www.w3.org/2000/svg"
   version="1.1"
   width="422.67502"
   height="41.963001"
   viewBox="0 0 422.675 41.963001"
   id="Ebene_1"
   xml:space="preserve"><defs
   id="defs21" />
<g
   transform="translate(-86.000009,-400.89)"
   id="g3">
	<path
   d="m 106.982,400.89 h 380.711 c 11.541,0 20.982,9.441 20.982,20.981 l 0,0 c 0,11.541 -9.441,20.982 -20.982,20.982 H 106.982 C 95.441,442.853 86,433.412 86,421.871 l 0,0 c 0,-11.539 9.441,-20.981 20.982,-20.981 l 0,0 z"
   id="path5"
   style="fill:#6f685f;fill-rule:evenodd" />
	<polygon
   points="319.269,408.062 319.269,408.062 434.238,408.062 434.238,411.131 319.269,411.131 "
   id="polygon7"
   style="fill:#e2001a;fill-rule:evenodd" />
	<polygon
   points="319.269,414.2 319.269,414.2 434.238,414.2 434.238,417.269 319.269,417.269 "
   id="polygon9"
   style="fill:#e95e38;fill-rule:evenodd" />
	<polygon
   points="319.269,420.337 319.269,420.337 434.238,420.337 434.238,423.406 319.269,423.406 "
   id="polygon11"
   style="fill:#ffcc00;fill-rule:evenodd" />
	<polygon
   points="319.269,426.475 319.269,426.475 434.238,426.475 434.238,429.544 319.269,429.544 "
   id="polygon13"
   style="fill:#57ab27;fill-rule:evenodd" />
	<polygon
   points="319.269,432.613 319.269,432.613 434.238,432.613 434.238,435.682 319.269,435.682 "
   id="polygon15"
   style="fill:#009ee0;fill-rule:evenodd" />
	<path
   d="m 467.986,426.337 c 0,3.889 -3.418,5.833 -10.258,5.833 h -3.5 c -3.854,0 -6.525,-0.666 -8.018,-1.993 -1.494,-1.33 -2.238,-3.632 -2.238,-6.906 v -4.404 c 0,-3.254 0.744,-5.545 2.238,-6.875 1.492,-1.33 4.164,-1.994 8.018,-1.994 h 3.5 c 3.176,0 5.564,0.426 7.164,1.28 1.602,0.854 2.402,2.103 2.402,3.75 v 1.578 h -8.223 v -0.565 c 0,-0.516 -0.148,-0.854 -0.447,-1.013 -0.299,-0.158 -0.896,-0.239 -1.791,-0.239 h -1.955 c -1.111,0 -1.824,0.09 -2.135,0.269 -0.313,0.178 -0.469,0.604 -0.469,1.279 v 3.034 c 1.193,-0.654 2.672,-0.98 4.438,-0.98 h 2.889 c 2.904,0 5.027,0.491 6.371,1.472 1.342,0.982 2.014,2.496 2.014,4.539 v 1.935 l 0,0 z M 283.488,415.679 h -3.961 v 11.364 h 4.133 v -5.94 c 0,-1.549 0.948,-2.325 2.671,-2.325 1.721,0 2.153,0.517 2.238,1.979 h 3.876 c 0,-3.874 -0.517,-5.338 -4.65,-5.338 -2.498,0 -3.359,0.517 -4.306,2.411 v -2.151 l -10e-4,0 z m -162.519,6.827 h -6.651 v 5.455 h 11.955 l -5.304,-5.455 0,0 z m 5.303,-6.574 h -11.955 v 5.454 h 6.576 l 5.379,-5.454 0,0 z m 176.245,8.874 c -3.959,0 -4.562,-0.345 -4.562,-2.326 h 10.851 c -0.172,-5.508 -0.172,-6.801 -7.492,-6.801 -6.202,0 -7.58,1.119 -7.58,6.027 0,4.564 1.81,5.683 6.804,5.77 5.598,0 8.268,-0.259 8.268,-3.961 h -4.049 c -0.172,0.861 -0.515,1.291 -2.24,1.291 l 0,0 z m -4.649,-4.735 c 0.172,-1.206 0.516,-1.637 3.272,-1.637 3.016,0 3.445,0.173 3.617,1.637 h -6.889 l 0,0 z m -153.972,0.43 h 4.133 c -0.344,-3.876 -1.464,-4.822 -7.232,-4.822 -6.545,0 -8.009,1.031 -8.009,5.855 0,4.822 1.378,5.941 7.492,5.941 6.458,0 7.75,-0.861 7.75,-4.909 h -4.133 c 0,1.12 -0.43,1.638 -3.617,1.638 -2.756,0 -3.358,-0.689 -3.358,-2.928 0,-2.153 0.602,-2.153 3.876,-2.153 2.409,0 2.839,0.259 3.098,1.378 l 0,0 z m 96.017,0.687 c 0,-4.649 -1.377,-5.595 -8.009,-5.595 -7.147,0 -8.007,1.205 -8.007,6.026 0,4.823 1.204,5.856 8.007,5.856 7.235,10e-4 8.009,-1.204 8.009,-6.287 l 0,0 z m -11.797,0.261 c 0,-2.326 0.517,-2.583 3.531,-2.583 3.358,0 3.96,0.085 3.96,2.583 0,2.325 -0.431,2.756 -3.617,2.756 -3.444,0 -3.874,-0.346 -3.874,-2.756 l 0,0 z m 48.911,-0.261 c 0,-4.649 -1.292,-5.595 -7.92,-5.595 -7.062,0 -7.923,1.117 -7.923,5.941 0,4.908 1.205,5.941 7.923,5.941 7.231,10e-4 7.92,-1.204 7.92,-6.287 l 0,0 z m -11.71,0.261 c 0,-2.326 0.516,-2.583 3.53,-2.583 3.359,0 3.961,0.085 3.961,2.583 0,2.325 -0.43,2.756 -3.616,2.756 -3.443,0 -3.875,-0.346 -3.875,-2.756 l 0,0 z m -98.945,-0.261 c 0,-4.649 -1.292,-5.595 -7.922,-5.595 -7.147,0 -8.009,1.117 -8.009,5.941 0,4.908 1.207,5.941 8.009,5.941 7.234,10e-4 7.922,-1.204 7.922,-6.287 l 0,0 z m -11.627,0.261 c 0,-2.326 0.517,-2.583 3.446,-2.583 3.358,0 3.961,0.085 3.961,2.583 0,2.325 -0.432,2.756 -3.617,2.756 -3.36,0 -3.79,-0.346 -3.79,-2.756 l 0,0 z m 99.549,-10.594 v 6.631 c -0.947,-1.292 -1.808,-1.979 -5.252,-1.979 -5.511,0 -6.545,1.464 -6.545,5.941 0,4.565 1.465,5.854 6.803,5.854 3.359,0 4.392,-0.86 5.167,-2.324 v 2.064 h 4.134 v -16.188 h -4.307 l 0,0.001 z m -3.014,7.924 c 2.324,0 3.101,0.344 3.101,2.151 0,2.757 -0.174,3.017 -3.444,3.017 -3.273,0 -4.134,-0.088 -4.134,-2.412 0,-2.67 1.033,-2.756 4.477,-2.756 l 0,0 z m -137.336,-3.221 v -7.023 c -1.419,-0.374 -2.392,-0.524 -3.81,-0.524 -7.398,0 -13.898,6.203 -13.898,13.898 0,7.921 6.574,13.824 13.972,13.824 1.345,0 2.092,-0.15 3.736,-0.6 v -7.172 c -1.645,0.821 -2.465,1.045 -3.81,1.045 -4.11,0 -7.25,-3.436 -7.25,-7.247 0,-3.959 3.064,-7.323 7.174,-7.323 1.421,0 2.616,0.375 3.886,1.122 l 0,0 z m 58.972,0.121 h -3.874 v 11.364 h 4.133 v -5.855 c 0,-1.721 0.861,-2.323 3.187,-2.323 2.153,0 2.756,0.774 2.756,2.927 v 5.251 h 4.219 v -6.026 c 0,-1.636 1.291,-2.152 3.271,-2.152 1.895,0 2.756,0.517 2.756,2.152 v 6.026 h 4.133 v -6.716 c 0,-3.356 -2.067,-4.908 -5.855,-4.908 -3.273,0 -4.479,1.206 -4.91,2.497 -0.861,-1.464 -2.066,-2.497 -5.339,-2.497 -3.1,0 -3.961,1.033 -4.478,2.928 v -2.668 l 0.001,0 z m 27.815,0 h -3.875 v 11.364 h 4.133 v -5.855 c 0,-1.721 1.033,-2.323 3.099,-2.323 2.154,0 2.756,0.689 2.756,2.927 v 5.251 h 4.221 v -6.026 c 0,-1.636 1.206,-2.152 3.187,-2.152 1.894,0 2.84,0.602 2.84,2.152 v 6.026 h 4.134 v -6.716 c 0,-3.356 -2.066,-4.908 -5.855,-4.908 -3.272,0 -4.393,1.119 -4.908,2.497 -0.862,-1.464 -2.068,-2.497 -5.34,-2.497 -3.013,0 -3.788,1.033 -4.391,2.928 v -2.668 l -0.001,0 z m 297.03,12.175 h -3.5 v 4.048 h -8.221 v -4.048 h -14.857 l 0.041,-5.892 11.764,-11.696 h 11.273 v 12.797 h 3.5 v 4.791 l 0,0 z m -11.72,-4.791 v -7.171 l -7.123,7.171 h 7.123 l 0,0 z m -26.276,2.946 v -1.576 c 0,-0.557 -0.184,-0.909 -0.551,-1.058 -0.365,-0.147 -1.16,-0.223 -2.381,-0.223 h -1.586 c -1.223,0 -2.023,0.069 -2.402,0.209 -0.381,0.137 -0.57,0.495 -0.57,1.071 v 1.576 c 0,0.597 0.189,0.969 0.57,1.116 0.379,0.148 1.18,0.224 2.402,0.224 h 1.586 c 1.248,0 2.049,-0.075 2.402,-0.224 0.352,-0.146 0.53,-0.518 0.53,-1.115 l 0,0 z"
   id="path17"
   style="fill:#ffffff" />
</g>
</svg>