<?xml version="1.0" encoding="UTF-8" standalone="no"?>
<!--
Copyright (c) 2021 Andreas Signer <asigner@gmail.com>

This file is part of cbm-font-editor.

cbm-font-editor is free software: you can redistribute it and/or
modify it under the terms of the GNU General Public License as
published by the Free Software Foundation, either version 3 of the
License, or (at your option) any later version.

cbm-font-editor is distributed in the hope that it will be useful,
but WITHOUT ANY WARRANTY; without even the implied warranty of
MERCHANTABILITY or FITNESS FOR A PARTICULAR PURPOSE.  See the
GNU General Public License for more details.

You should have received a copy of the GNU General Public License
along with cbm-font-editor.  If not, see <http://www.gnu.org/licenses/>.
-->
<svg
   xmlns:dc="http://purl.org/dc/elements/1.1/"
   xmlns:cc="http://creativecommons.org/ns#"
   xmlns:rdf="http://www.w3.org/1999/02/22-rdf-syntax-ns#"
   xmlns:svg="http://www.w3.org/2000/svg"
   xmlns="http://www.w3.org/2000/svg"
   xmlns:sodipodi="http://sodipodi.sourceforge.net/DTD/sodipodi-0.dtd"
   xmlns:inkscape="http://www.inkscape.org/namespaces/inkscape"
   version="1.1"
   width="333.11249"
   height="41.963001"
   viewBox="0 0 333.11247 41.963001"
   id="Ebene_1"
   xml:space="preserve"
   sodipodi:docname="cbm-font-editor-logo-no-text.svg"
   inkscape:version="1.0.1 (3bc2e813f5, 2020-09-07)"><metadata
   id="metadata14"><rdf:RDF><cc:Work
       rdf:about=""><dc:format>image/svg+xml</dc:format><dc:type
         rdf:resource="http://purl.org/dc/dcmitype/StillImage" /><dc:title></dc:title></cc:Work></rdf:RDF></metadata><sodipodi:namedview
   pagecolor="#ffffff"
   bordercolor="#666666"
   borderopacity="1"
   objecttolerance="10"
   gridtolerance="10"
   guidetolerance="10"
   inkscape:pageopacity="0"
   inkscape:pageshadow="2"
   inkscape:window-width="2560"
   inkscape:window-height="1376"
   id="namedview12"
   showgrid="false"
   inkscape:zoom="4"
   inkscape:cx="203.25721"
   inkscape:cy="81.292365"
   inkscape:window-x="0"
   inkscape:window-y="27"
   inkscape:window-maximized="1"
   inkscape:current-layer="Ebene_1"
   inkscape:document-rotation="0"
   fit-margin-top="0"
   fit-margin-left="0"
   fit-margin-right="0"
   fit-margin-bottom="0" /><defs
   id="defs21">







</defs>
<rect
   style="fill:#6f685f;fill-opacity:1;stroke:none;stroke-width:6.99971;stroke-miterlimit:4;stroke-dasharray:none;stroke-opacity:1"
   id="rect2292-3"
   width="326.11279"
   height="34.963291"
   x="3.499855"
   y="3.499855"
   ry="17.481646" /><polygon
   points="434.238,411.131 319.269,411.131 319.269,408.062 434.238,408.062 "
   id="polygon7"
   style="fill:#e2001a;fill-rule:evenodd"
   transform="matrix(0.2861673,0,0,1,201.90464,-400.89)" /><g
   aria-label="cbm font editor "
   id="text841"
   style="font-size:26.6667px;line-height:1.25;font-family:'Microgramma D Extended';-inkscape-font-specification:'Microgramma D Extended';letter-spacing:0px;word-spacing:0px;fill:#ffffff;fill-opacity:1"><path
     d="m 57.569869,21.803854 c -0.213334,1.440002 -1.013335,1.813336 -3.786672,1.813336 -1.253335,0 -2.266669,-0.133334 -2.82667,-0.373334 -0.853334,-0.346667 -1.120001,-0.986668 -1.120001,-2.640003 0,-2.640004 0.613334,-3.146671 3.893338,-3.146671 2.773337,0 3.706671,0.480001 3.866671,1.920002 h 4.800006 c -0.08,-2.373336 -0.426667,-3.360004 -1.440001,-4.160005 -1.200002,-0.986668 -3.040004,-1.306668 -7.226676,-1.306668 -4.266672,0 -5.920008,0.293334 -7.120009,1.280002 -1.120002,0.906667 -1.493335,2.240002 -1.493335,5.280006 0,3.333338 0.4,4.693339 1.626668,5.546674 1.253335,0.906668 2.880004,1.173335 6.746676,1.173335 4.960006,0 6.506674,-0.320001 7.706676,-1.546669 0.826668,-0.826668 1.093335,-1.733335 1.173335,-3.840005 z"
     style="font-size:26.6667px;fill:#ffffff;fill-opacity:1"
     id="path892" /><path
     d="M 64.103194,9.0838381 V 26.870527 h 4.453339 v -1.653335 h 0.24 c 0.933335,1.573335 2.133336,1.973336 5.65334,1.973336 3.253338,0 5.01334,-0.373334 6.053341,-1.306669 1.066668,-0.933334 1.386669,-2.213336 1.386669,-5.360006 0,-3.280005 -0.373334,-4.506673 -1.600002,-5.440007 -1.093335,-0.826668 -2.853337,-1.173335 -5.973341,-1.173335 -3.146671,0 -4.346672,0.453334 -5.280007,2.026669 H 68.8232 V 9.0838381 Z m 8.906678,8.3733439 c 1.280001,0 2.426669,0.133334 3.040004,0.346667 0.853334,0.346667 1.120001,0.933335 1.120001,2.613337 0,1.573335 -0.186667,2.266669 -0.720001,2.640003 -0.506667,0.373334 -1.653335,0.560001 -3.360004,0.560001 -1.253335,0 -2.453337,-0.133334 -3.040004,-0.320001 -0.960001,-0.32 -1.226668,-0.906667 -1.226668,-2.693336 0,-1.626669 0.213333,-2.26667 0.880001,-2.66667 0.533334,-0.320001 1.653335,-0.480001 3.306671,-0.480001 z"
     style="font-size:26.6667px;fill:#ffffff;fill-opacity:1"
     id="path894" /><path
     d="m 83.676531,14.257178 v 12.613349 h 4.720006 v -5.200006 c 0,-2.080003 0.16,-2.880004 0.693334,-3.413338 0.533334,-0.533334 1.466669,-0.773334 2.880004,-0.773334 1.360002,0 2.18667,0.213333 2.613337,0.693334 0.453334,0.480001 0.506667,0.826668 0.506667,2.800003 v 5.893341 h 4.720006 v -5.200006 c 0,-2.053336 0.16,-2.800004 0.693335,-3.386671 0.50667,-0.560001 1.38667,-0.800001 2.8,-0.800001 1.38667,0 2.18667,0.213333 2.66667,0.693334 0.45334,0.453334 0.50667,0.693334 0.53334,2.800003 v 5.893341 h 4.72 v -5.893341 c 0,-3.253337 -0.24,-4.293338 -1.33333,-5.41334 -1.09334,-1.146668 -2.64001,-1.626668 -5.25334,-1.626668 -3.09334,0 -4.640008,0.746667 -5.440009,2.640003 -1.013335,-1.866669 -2.693337,-2.640003 -5.733341,-2.640003 -2.800003,0 -4.400005,0.693334 -5.093339,2.213336 H 88.12987 v -1.893336 z"
     style="font-size:26.6667px;fill:#ffffff;fill-opacity:1"
     id="path896" /><path
     d="m 118.84984,17.643849 h 2.42667 v 9.226678 h 4.72001 v -9.226678 h 4.64 v -3.386671 h -4.64 c 0.0533,-1.973336 0.50667,-2.320003 3.01333,-2.320003 0.29334,0 0.37334,0 1.25334,0.02667 V 8.8438378 c -1.01333,-0.053333 -1.49334,-0.08 -2.37334,-0.08 -3.14667,0 -4.34667,0.266667 -5.36,1.2000015 -0.96,0.8800007 -1.17334,1.6000017 -1.25334,4.2933387 h -2.42667 z"
     style="font-size:26.6667px;fill:#ffffff;fill-opacity:1"
     id="path898" /><path
     d="m 140.47652,13.937178 c -4.29334,0 -6.13335,0.293333 -7.30668,1.146668 -1.25334,0.906668 -1.62667,2.106669 -1.62667,5.066673 0,3.653338 0.29333,4.826673 1.46667,5.786674 1.2,0.986668 2.77334,1.253335 7.49334,1.253335 4.66667,0 6.24001,-0.266667 7.44001,-1.253335 1.14667,-0.960001 1.46667,-2.133336 1.46667,-5.600007 0,-3.173338 -0.34667,-4.320006 -1.62667,-5.25334 -1.17333,-0.853335 -2.98667,-1.146668 -7.30667,-1.146668 z m 0.0267,3.546671 c 1.33334,0 2.45334,0.133333 3.04001,0.373334 0.88,0.346667 1.14666,0.960001 1.14666,2.66667 0,2.66667 -0.61333,3.120004 -4.18667,3.120004 -1.52,0 -2.58667,-0.133334 -3.17334,-0.400001 -0.85333,-0.346667 -1.06666,-0.906668 -1.06666,-2.58667 0,-2.693337 0.64,-3.173337 4.24,-3.173337 z"
     style="font-size:26.6667px;fill:#ffffff;fill-opacity:1"
     id="path900" /><path
     d="m 151.16985,14.257178 v 12.613349 h 4.72001 v -5.040006 c 0,-2.320003 0.10666,-2.90667 0.69333,-3.520005 0.56,-0.586667 1.49334,-0.826667 3.22667,-0.826667 1.76,0 2.66667,0.186667 3.17334,0.693334 0.50667,0.480001 0.58667,0.933334 0.58667,2.960004 v 5.73334 h 4.72 v -5.73334 c 0,-3.466671 -0.24,-4.426673 -1.38667,-5.626674 -1.12,-1.146668 -2.66667,-1.573335 -5.68,-1.573335 -3.06667,0 -4.50667,0.613334 -5.36001,2.240002 h -0.24 v -1.920002 z"
     style="font-size:26.6667px;fill:#ffffff;fill-opacity:1"
     id="path902" /><path
     d="m 171.75654,11.350508 v 2.90667 h -2.48 v 3.386671 h 2.48 v 3.680005 c 0,1.040001 0,1.680002 0.0267,1.893335 0.0533,1.440002 0.32,2.133336 0.98667,2.800004 0.93333,0.906668 2.16,1.173335 5.17334,1.173335 3.25333,0 4.69334,-0.400001 5.65334,-1.600002 0.72,-0.933335 0.90666,-1.706669 0.96,-4.106672 h -4.32001 c 0,1.306668 -0.0267,1.413335 -0.18666,1.706669 -0.21334,0.453334 -0.74667,0.64 -1.70667,0.64 -0.90667,0 -1.38667,-0.186666 -1.62667,-0.613334 -0.21334,-0.32 -0.24,-0.506667 -0.24,-1.893335 v -3.680005 h 7.46667 v -3.386671 h -7.46667 v -2.90667 z"
     style="font-size:26.6667px;fill:#ffffff;fill-opacity:1"
     id="path904" /><path
     d="m 204.36982,22.843856 c -0.18667,1.120001 -0.74667,1.333335 -3.76,1.333335 -1.70667,0 -2.69334,-0.160001 -3.20001,-0.533334 -0.45333,-0.346668 -0.58667,-0.773335 -0.58667,-2.053336 h 12.32002 c 0.0267,-0.533334 0.0267,-1.120002 0.0267,-1.280002 0,-2.853337 -0.42667,-4.266672 -1.54667,-5.200007 -1.14667,-0.933334 -2.64001,-1.200001 -6.90668,-1.200001 -4.10667,0 -5.68001,0.266667 -6.90667,1.120001 -1.33334,0.933335 -1.70667,2.18667 -1.70667,5.573341 0,3.22667 0.37333,4.480005 1.6,5.41334 1.14667,0.853334 2.88,1.173335 6.53334,1.173335 6.74668,0 8.48001,-0.853335 8.82668,-4.346672 z m -7.54668,-3.840005 c 0.0533,-1.760003 0.8,-2.160003 3.97334,-2.160003 1.86667,0 2.82667,0.186667 3.25334,0.640001 0.29333,0.293333 0.34667,0.533334 0.37333,1.520002 z"
     style="font-size:26.6667px;fill:#ffffff;fill-opacity:1"
     id="path906" /><path
     d="m 228.34316,9.0838381 h -4.72001 V 15.93718 h -0.18667 c -0.90666,-1.600002 -2,-2.026669 -5.30667,-2.026669 -3.25334,0 -4.56001,0.213333 -5.70667,0.960001 -1.33334,0.880001 -1.84001,2.400003 -1.84001,5.600007 0,3.146671 0.32,4.426672 1.36001,5.386674 1.09333,0.986668 2.72,1.333335 6.13334,1.333335 3.41333,0 4.66667,-0.453334 5.57334,-1.973336 h 0.24 v 1.653335 h 4.45334 z m -8.66668,8.3733439 c 3.36,0 3.97334,0.480001 3.97334,3.093337 0,1.466669 -0.18667,2.133336 -0.72,2.480003 -0.53334,0.373334 -1.81334,0.586668 -3.54668,0.586668 -3.54667,0 -4.08,-0.426667 -4.08,-3.200004 0,-2.533337 0.64,-2.960004 4.37334,-2.960004 z"
     style="font-size:26.6667px;fill:#ffffff;fill-opacity:1"
     id="path908" /><path
     d="m 230.47649,14.257178 v 12.613349 h 4.72001 V 14.257178 Z m 0,-5.1733399 v 3.5466709 h 4.72001 V 9.0838381 Z"
     style="font-size:26.6667px;fill:#ffffff;fill-opacity:1"
     id="path910" /><path
     d="m 238.74316,11.350508 v 2.90667 h -2.48 v 3.386671 h 2.48 v 3.680005 c 0,1.040001 0,1.680002 0.0267,1.893335 0.0533,1.440002 0.32,2.133336 0.98666,2.800004 0.93334,0.906668 2.16001,1.173335 5.17334,1.173335 3.25334,0 4.69334,-0.400001 5.65334,-1.600002 0.72001,-0.933335 0.90667,-1.706669 0.96001,-4.106672 h -4.32001 c 0,1.306668 -0.0267,1.413335 -0.18667,1.706669 -0.21333,0.453334 -0.74666,0.64 -1.70666,0.64 -0.90667,0 -1.38667,-0.186666 -1.62667,-0.613334 -0.21334,-0.32 -0.24,-0.506667 -0.24,-1.893335 v -3.680005 h 7.46667 v -3.386671 h -7.46667 v -2.90667 z"
     style="font-size:26.6667px;fill:#ffffff;fill-opacity:1"
     id="path912" /><path
     d="m 261.59646,13.937178 c -4.29333,0 -6.13334,0.293333 -7.30667,1.146668 -1.25334,0.906668 -1.62667,2.106669 -1.62667,5.066673 0,3.653338 0.29333,4.826673 1.46667,5.786674 1.2,0.986668 2.77334,1.253335 7.49334,1.253335 4.66667,0 6.24001,-0.266667 7.44001,-1.253335 1.14667,-0.960001 1.46667,-2.133336 1.46667,-5.600007 0,-3.173338 -0.34667,-4.320006 -1.62667,-5.25334 -1.17333,-0.853335 -2.98667,-1.146668 -7.30668,-1.146668 z m 0.0267,3.546671 c 1.33334,0 2.45334,0.133333 3.04001,0.373334 0.88,0.346667 1.14666,0.960001 1.14666,2.66667 0,2.66667 -0.61333,3.120004 -4.18667,3.120004 -1.52,0 -2.58667,-0.133334 -3.17334,-0.400001 -0.85333,-0.346667 -1.06666,-0.906668 -1.06666,-2.58667 0,-2.693337 0.64,-3.173337 4.24,-3.173337 z"
     style="font-size:26.6667px;fill:#ffffff;fill-opacity:1"
     id="path914" /><path
     d="m 272.2898,14.257178 v 12.613349 h 4.72001 v -5.226673 c 0,-1.946669 0.13333,-2.640003 0.58666,-3.253337 0.45334,-0.586668 1.33334,-0.906668 2.40001,-0.906668 1.94667,0 2.48,0.506667 2.48,2.373336 h 4.45334 v -0.853334 c 0,-3.786672 -1.28,-5.066673 -5.09334,-5.066673 -2.64,0 -3.97334,0.613334 -4.85334,2.213336 h -0.24 v -1.893336 z"
     style="font-size:26.6667px;fill:#ffffff;fill-opacity:1"
     id="path916" /></g><polygon
   points="434.238,417.269 319.269,417.269 319.269,414.2 434.238,414.2 "
   id="polygon9"
   style="fill:#e95e38;fill-rule:evenodd"
   transform="matrix(0.2861673,0,0,1,201.90464,-400.89)" /><polygon
   points="434.238,423.406 319.269,423.406 319.269,420.337 434.238,420.337 "
   id="polygon11"
   style="fill:#ffcc00;fill-rule:evenodd"
   transform="matrix(0.2861673,0,0,1,201.90464,-400.89)" /><polygon
   points="434.238,429.544 319.269,429.544 319.269,426.475 434.238,426.475 "
   id="polygon13"
   style="fill:#57ab27;fill-rule:evenodd"
   transform="matrix(0.2861673,0,0,1,201.90464,-400.89)" /><polygon
   points="434.238,432.613 434.238,435.682 319.269,435.682 319.269,432.613 "
   id="polygon15"
   style="fill:#009ee0;fill-rule:evenodd"
   transform="matrix(0.2861641,0,0,1,201.90566,-400.89)" /><rect
   style="fill:none;fill-opacity:1;stroke:#6f685f;stroke-width:6.99971;stroke-miterlimit:4;stroke-dasharray:none;stroke-opacity:1"
   id="rect2292"
   width="326.11279"
   height="34.963291"
   x="3.499855"
   y="3.499855"
   ry="17.481646" /><path
   d="m 34.968991,21.616 h -6.651 v 5.455 h 11.955 z m 5.303,-6.574 h -11.955 v 5.454 h 6.576 z m -12.328,-0.374 V 7.645 c -1.419,-0.374 -2.392,-0.524 -3.81,-0.524 -7.398,0 -13.898,6.203 -13.898,13.898 0,7.921 6.574,13.824 13.972,13.824 1.345,0 2.092,-0.15 3.736,-0.6 v -7.172 c -1.645,0.821 -2.465,1.045 -3.81,1.045 -4.11,0 -7.25,-3.436 -7.25,-7.247 0,-3.959 3.064,-7.323 7.174,-7.323 1.421,0 2.616,0.375 3.886,1.122 z"
   id="path17"
   style="fill:#ffffff"
   sodipodi:nodetypes="ccccccccccccsssccsssc" />
</svg>
